Coordinates
version=1
nRows=5
nColumns=46
inDegrees=yes

Units are S.I. units (second, meters, Newtons, ...)
Angles are in degrees.

endheader
time	pelvis_tilt	pelvis_list	pelvis_rotation	pelvis_tx	pelvis_ty	pelvis_tz	bb_angle	bb_tx	bb_ty	bb_tz	hip_flexion_r	hip_adduction_r	hip_rotation_r	knee_angle_r	knee_angle_r_beta	ankle_angle_r	subtalar_angle_r	mtp_angle_r	crank_angle_r	hip_flexion_l	hip_adduction_l	hip_rotation_l	knee_angle_l	knee_angle_l_beta	ankle_angle_l	subtalar_angle_l	mtp_angle_l	crank_angle_l	lumbar_extension	lumbar_bending	lumbar_rotation	arm_flex_r	arm_add_r	arm_rot_r	elbow_flex_r	pro_sup_r	wrist_flex_r	wrist_dev_r	arm_flex_l	arm_add_l	arm_rot_l	elbow_flex_l	pro_sup_l	wrist_flex_l	wrist_dev_l
      0.00000000	     -7.55471503	      6.94294826	      1.74002251	      0.04507093	      1.16310026	     -0.23436272	      0.00000000	      0.50000000	      0.00000000	      0.25000000	     28.45834471	    -10.31085342	      1.34802254	     23.90597212	      0.41723792	     -1.46753442	     -0.02580530	      0.00000000	      0.00000000	     79.20122182	     -3.49178244	     -3.35301909	    109.66844948	      1.91407553	     -6.56541357	    -10.26528755	      0.00000000	      0.00000000	    -56.07861277	     -3.98342194	     -8.99602011	     89.26620131	     -4.07943303	     40.20325955	     26.42046796	     27.65727816	      0.00000000	      0.00000000	     89.70266968	     -6.83381043	     53.62939206	     18.53697965	     24.53662224	      0.00000000	      0.00000000
      0.00500000	     -7.80987135	      7.02479783	      1.66350728	      0.04504407	      1.16257838	     -0.23428945	      0.00000000	      0.50000000	      0.00000000	      0.25000000	     28.87034341	    -10.35855176	      1.50076015	     24.12629734	      0.42108332	     -1.29467545	      0.11437846	      0.00000000	      0.00000000	     79.47582514	     -3.55814065	     -3.43007045	    109.68240362	      1.91431907	     -6.48264813	    -10.08468734	      0.00000000	      0.00000000	    -55.72629408	     -4.16294018	     -8.94105538	     89.29834435	     -3.32474154	     38.44439106	     24.29861298	     30.65524083	      0.00000000	      0.00000000	     89.69809062	     -5.89842175	     48.58776768	     16.90001753	     27.52132065	      0.00000000	      0.00000000
      0.01000000	     -7.86790317	      6.93765608	      1.67902392	      0.04505069	      1.16243700	     -0.23432898	      0.00000000	      0.50000000	      0.00000000	      0.25000000	     28.92915757	    -10.26234561	      1.47795707	     24.13270184	      0.42119510	     -1.40606269	     -0.07625039	      0.00000000	      0.00000000	     79.57491797	     -3.58067032	     -3.32479249	    109.71286284	      1.91485069	     -6.39979995	     -9.93339434	      0.00000000	      0.00000000	    -55.60371263	     -4.05484523	     -8.77140294	     89.31593185	     -4.29301278	     42.36852347	     24.50560097	     32.57224930	      0.00000000	      0.00000000	     89.71635932	     -6.56328893	     53.73272006	     16.48680821	     28.34316538	      0.00000000	      0.00000000
      0.01500000	     -7.90639000	      6.88305348	      1.59185253	      0.04514870	      1.16228174	     -0.23443168	      0.00000000	      0.50000000	      0.00000000	      0.25000000	     29.00360405	    -10.19498715	      1.51162533	     24.16334529	      0.42172993	     -1.39664769	      0.20215244	      0.00000000	      0.00000000	     79.61742643	     -3.58736824	     -3.21640833	    109.72368320	      1.91503954	     -6.03046176	     -7.86386170	      0.00000000	      0.00000000	    -55.56575512	     -4.11214704	     -8.60109988	     89.30333735	     -4.34303891	     42.30111086	     24.23360022	     33.52479531	      0.00000000	      0.00000000	     89.71343571	     -6.33165730	     55.20274308	     16.35208975	     28.60371340	      0.00000000	      0.00000000
      0.02000000	     -8.22540912	      7.01523737	      0.52918290	      0.04714255	      1.16196783	     -0.23076218	      0.00000000	      0.50000000	      0.00000000	      0.25000000	     29.44486922	     -9.53469684	      2.79072918	     24.12738473	      0.42110230	     -1.53914867	     -0.54988558	      0.00000000	      0.00000000	     79.69715269	     -4.56513767	     -3.49414725	    109.64183166	      1.91361096	     -5.78600746	     -6.51391522	      0.00000000	      0.00000000	    -55.25525693	     -5.11192473	     -8.28366413	     89.27754913	     -3.98800253	     41.76923805	     23.70289858	     33.21298393	      0.00000000	      0.00000000	     89.70604437	     -5.83474433	     54.99940912	     15.25299125	     27.93914267	      0.00000000	      0.00000000
